<?xml version="1.0" encoding="utf-8"?>
<svg viewBox="-261.637 -198.252 719.79 719.838" xmlns="http://www.w3.org/2000/svg">
  <path style="fill:#000000;fill-rule:evenodd;stroke:#000000;stroke-width:1.18218207px;stroke-linecap:butt;stroke-linejoin:miter;stroke-opacity:1" d="M 368.05831,166.27857 C 173.52774,168.32231 15.052536,325.19623 12.152056,520.84106 l 0,11.3125 C 15.380806,726.49464 172.33677,883.17858 366.68331,886.05981 565.4336,889.00633 728.95554,730.27886 731.90206,531.52856 734.84858,332.77826 576.12111,169.25634 377.37081,166.30982 c -3.10547,-0.046 -6.22471,-0.0637 -9.3125,-0.0312 z m -30.1875,145.06249 68.34375,0 c 2.09772,0 3.78125,1.68354 3.78125,3.78125 l 0,173.09375 173.09375,0 c 2.09772,0 3.78125,1.68353 3.78125,3.78125 l 0,68.34375 c 0,2.09772 -1.68353,3.8125 -3.78125,3.8125 l -173.09375,0 0,173.09375 c 0,2.09772 -1.68353,3.78125 -3.78125,3.78125 l -68.34375,0 c -2.09772,0 -3.78125,-1.68353 -3.78125,-3.78125 l 0,-173.09375 -173.09375,0 c -2.09772,0 -3.78125,-1.71478 -3.78125,-3.8125 l 0,-68.34375 c 0,-2.09772 1.68353,-3.78125 3.78125,-3.78125 l 173.09375,0 0,-173.09375 c 0,-2.09771 1.68353,-3.78125 3.78125,-3.78125 z" id="path-2" transform="matrix(1, 0, 0, 1, -273.789349, -364.514191)"/>
</svg>