<?xml version="1.0" encoding="utf-8"?>
<svg viewBox="103.077 120.05 225.27 31.9" xmlns="http://www.w3.org/2000/svg" xmlns:bx="https://boxy-svg.com">
  <g id="wordmark" stroke="none" stroke-width="1" fill="none" fill-rule="evenodd" transform="matrix(1, 0, 0, 1, 55.604847, 113.374176)">
    <g id="Logo-(1)" transform="translate(0.000000, 0.000000)" fill="#FFFFFF">
      <path d="M47.4723242,38.324141 L47.4723242,6.67585895 L58.6853106,6.67585895 C60.4002519,6.67585895 62.0019516,6.85383109 63.4904099,7.20982481 C65.0115055,7.5334285 66.3219421,8.09973495 67.4222145,8.90874416 C68.5551241,9.68536333 69.4447375,10.7370753 70.0920438,12.0638306 C70.73935,13.3582454 71.0627559,14.9600935 71.0627559,16.8693256 C71.0627559,18.7138765 70.7230314,20.3156751 70.0435823,21.6748205 C69.3962761,23.0339659 68.5066626,24.150359 67.373753,25.0240988 C66.2413379,25.8978387 64.9304067,26.5450461 63.4419485,26.965721 C61.9534902,27.3863959 60.3676146,27.596758 58.6853106,27.596758 L54.6076272,27.596758 L54.6076272,38.324141 L47.4723242,38.324141 Z M54.6076272,21.9175233 L58.2481687,21.9175233 C62.1315118,21.9175233 64.0729361,20.2347742 64.0729361,16.8693256 C64.0729361,15.2189666 63.5715086,14.0540131 62.5681592,13.3744157 C61.597447,12.6948677 60.1574502,12.3550937 58.2481687,12.3550937 L54.6076272,12.3550937 L54.6076272,21.9175233 Z" id="Shape" fill-rule="nonzero"/>
      <path d="M75.4153837,38.324141 L75.4153837,6.67585895 L86.6282711,6.67585895 C88.3110696,6.67585895 89.8806266,6.8376608 91.3369421,7.16126448 C92.8254004,7.48486817 94.1195184,8.03500432 95.2197907,8.81162349 C96.3527003,9.55595153 97.2423138,10.5591032 97.88962,11.8211279 C98.5369263,13.083202 98.8603322,14.6526601 98.8603322,16.5295516 C98.8603322,18.859508 98.3425861,20.7849104 97.3070938,22.3058576 C96.2716016,23.7944147 94.9127035,24.9108573 93.229905,25.6551359 L100.365109,38.324141 L92.3561157,38.324141 L86.2885466,26.9171606 L82.5510823,26.9171606 L82.5510823,38.324141 L75.4153837,38.324141 Z M82.5510823,21.2379753 L86.045745,21.2379753 C89.8969453,21.2379753 91.8220509,19.6684678 91.8220509,16.5295516 C91.8220509,14.9762638 91.3369421,13.8922112 90.3657355,13.2773444 C89.3950233,12.6625271 87.9550265,12.3550937 86.045745,12.3550937 L82.5510823,12.3550937 L82.5510823,21.2379753 Z" id="Shape" fill-rule="nonzero"/>
      <polygon id="Path" fill-rule="nonzero" points="105.117296 38.324141 105.117296 6.67585895 126.086756 6.67585895 126.086756 12.6948677 112.301456 12.6948677 112.301456 19.0536504 123.999453 19.0536504 123.999453 25.0240988 112.301456 25.0240988 112.301456 32.3051323 126.572359 32.3051323 126.572359 38.324141"/>
      <path d="M132.572181,38.324141 L132.572181,6.67585895 L141.507876,6.67585895 L146.15325,22.2572972 L146.34759,22.2572972 L150.993459,6.67585895 L159.928659,6.67585895 L159.928659,38.324141 L153.415542,38.324141 C153.415542,30.1691205 153.512465,24.8421212 153.512465,16.6874468 L149.314617,29.926665 L143.463641,29.926665 L138.98887,16.6874468 L138.98887,38.324141 L132.572181,38.324141 Z" id="Path" fill-rule="nonzero"/>
      <polygon id="Path" fill-rule="nonzero" points="165.783097 38.324141 165.783097 6.67585895 172.967257 6.67585895 172.967257 38.324141"/>
      <polygon id="Path" fill-rule="nonzero" points="178.715376 38.324141 178.715376 6.67585895 188.872497 6.67585895 196.001767 28.9214859 196.001767 6.67585895 202.37494 6.67585895 202.37494 38.324141 193.160345 38.324141 185.559812 16.1270744 185.559812 38.324141"/>
      <polygon id="Path" fill-rule="nonzero" points="216.529634 38.324141 216.529634 12.6948677 207.064325 12.6948677 207.064325 6.67585895 233.179103 6.67585895 233.179103 12.6948677 223.713794 12.6948677 223.713794 38.324141"/>
    </g>
  </g>
  <g id="layer1" transform="matrix(0.060272, 0, 0, 0.058356, 314.881775, 145.855942)" style="">
    <g id="g-1" transform="matrix(0.728347, 0, 0, 0.752252, -309.693512, -562.138123)" bx:origin="0.513 0.515">
      <path style="fill:#FFFFFF;fill-rule:evenodd;stroke:#FFFFFF;stroke-width:1.18218207px;stroke-linecap:butt;stroke-linejoin:miter;stroke-opacity:1" d="M 368.05831,166.27857 C 173.52774,168.32231 15.052536,325.19623 12.152056,520.84106 l 0,11.3125 C 15.380806,726.49464 172.33677,883.17858 366.68331,886.05981 565.4336,889.00633 728.95554,730.27886 731.90206,531.52856 734.84858,332.77826 576.12111,169.25634 377.37081,166.30982 c -3.10547,-0.046 -6.22471,-0.0637 -9.3125,-0.0312 z m -30.1875,145.06249 68.34375,0 c 2.09772,0 3.78125,1.68354 3.78125,3.78125 l 0,173.09375 173.09375,0 c 2.09772,0 3.78125,1.68353 3.78125,3.78125 l 0,68.34375 c 0,2.09772 -1.68353,3.8125 -3.78125,3.8125 l -173.09375,0 0,173.09375 c 0,2.09772 -1.68353,3.78125 -3.78125,3.78125 l -68.34375,0 c -2.09772,0 -3.78125,-1.68353 -3.78125,-3.78125 l 0,-173.09375 -173.09375,0 c -2.09772,0 -3.78125,-1.71478 -3.78125,-3.8125 l 0,-68.34375 c 0,-2.09772 1.68353,-3.78125 3.78125,-3.78125 l 173.09375,0 0,-173.09375 c 0,-2.09771 1.68353,-3.78125 3.78125,-3.78125 z" id="path2996"/>
    </g>
  </g>
</svg>